<svg width="26" height="26" viewBox="0 0 26 26" fill="none" xmlns="http://www.w3.org/2000/svg">
<circle cx="13" cy="13" r="13" fill="#202020"/>
<path d="M18 7.68032H15.3684V7.12021C15.3684 6.50259 14.896 6 14.3158 6H11.6842C11.1036 6 10.6316 6.50259 10.6316 7.12021V7.68032H8V8.24042H8.52592L9.01472 18.6732C9.05062 19.4191 9.62802 20.0027 10.3288 20.0027H15.6711C16.3721 20.0027 16.9492 19.4191 16.9851 18.6741L17.4743 8.24048H18L18 7.68032ZM11.1579 7.12021C11.1579 6.81057 11.3939 6.55999 11.6842 6.55999H14.3158C14.6067 6.55999 14.8421 6.81047 14.8421 7.12021V7.68032H11.1579V7.12021ZM16.4597 18.6449C16.4381 19.092 16.0911 19.4424 15.6713 19.4424H10.3288C9.90859 19.4424 9.56176 19.0921 9.54036 18.6449L9.05258 8.24042H16.9473L16.4597 18.6449Z" fill="white"/>
<path d="M12.7368 9.36035H13.2631V18.322H12.7368V9.36035Z" fill="white"/>
<path d="M15.3684 9.36035H14.8421L14.3158 18.3218H14.8421L15.3684 9.36035Z" fill="white"/>
<path d="M11.6842 18.322L11.1579 9.3606H10.6316L11.1579 18.322H11.6842Z" fill="white"/>
</svg>
